<svg xmlns="http://www.w3.org/2000/svg" viewBox="0 0 512 512" width="512" height="512"><defs>
  <linearGradient id="bg" x1="0" y1="0" x2="1" y2="1"><stop offset="0" stop-color="#2A1B5E"/><stop offset="1" stop-color="#0B0620"/></linearGradient>
  <linearGradient id="rim" x1="0" y1="0" x2="1" y2="1"><stop offset="0" stop-color="#8B5CF6"/><stop offset="1" stop-color="#38BDF8"/></linearGradient>
  <linearGradient id="arw" gradientUnits="userSpaceOnUse" x1="150" y1="260" x2="300" y2="104"><stop offset="0" stop-color="#8B5CF6"/><stop offset="1" stop-color="#38BDF8"/></linearGradient>
  <radialGradient id="glow" cx="0.3" cy="0.2" r="0.8"><stop offset="0" stop-color="#8B5CF6" stop-opacity="0.45"/><stop offset="1" stop-color="#8B5CF6" stop-opacity="0"/></radialGradient>
</defs><rect x="14" y="14" width="484" height="484" rx="122" fill="url(#bg)"/><rect x="14" y="14" width="484" height="484" rx="122" fill="url(#glow)"/><path d="M136 14 H376 Q498 14 498 136 V170 Q300 120 14 260 V136 Q14 14 136 14 Z" fill="#FFFFFF" opacity="0.06"/><rect x="14" y="14" width="484" height="484" rx="122" fill="none" stroke="url(#rim)" stroke-width="9"/><g transform="translate(24.9,63.1) scale(0.7653)"><path d="M152 254 L246 160" stroke="url(#arw)" stroke-width="44" stroke-linecap="round" fill="none"/>
  <polygon points="300,104 280,196 208,124" fill="url(#arw)" stroke="url(#arw)" stroke-width="12" stroke-linejoin="round"/>
  <g fill="none" stroke="#FFFFFF" stroke-width="44" stroke-linecap="round" stroke-linejoin="round">
    <path d="M128 384 V136"/>
    <path d="M152 262 L246 384"/>
    <path d="M352 384 V146 L414 262 L476 146 V384"/>
  </g></g></svg>